<?xml version="1.0" encoding="utf-8"?>
<!-- Generator: Adobe Illustrator 22.1.0, SVG Export Plug-In . SVG Version: 6.00 Build 0)  -->
<svg version="1.1" id="图层_1" xmlns="http://www.w3.org/2000/svg" xmlns:xlink="http://www.w3.org/1999/xlink" x="0px" y="0px"
	 viewBox="0 0 64 64" style="enable-background:new 0 0 64 64;" xml:space="preserve">
<style type="text/css">
	.st0{fill:#191B32;}
</style>
<title>icon_notes</title>
<desc>Created with Sketch.</desc>
<g>
	<path class="st0" d="M53.8,13l-5.7-5.7c-1.1-1.1-2.6-1.8-4.2-1.8c-1.6,0-3.1,0.6-4.2,1.8L7.9,39.2L4.3,54.4
		c-0.2,0.9,0.2,1.9,1.1,2.3c0.2,0.1,0.5,0.2,0.8,0.2c0.1,0,0.2,0,0.3,0L22,53.3l31.8-31.8C56.1,19.2,56.1,15.3,53.8,13z M20.5,50.6
		l-13,3l3.1-12.9L34,17.3l9.9,9.9L20.5,50.6z M51.7,19.4L46,25.1l-9.9-9.9l5.7-5.7c1.1-1.1,3.1-1.1,4.2,0l5.7,5.7
		C52.8,16.3,52.8,18.3,51.7,19.4z"/>
	<path class="st0" d="M40.2,48.4c0,0.8,0.7,1.5,1.5,1.5h15c0.8,0,1.5-0.7,1.5-1.5c0-0.8-0.7-1.5-1.5-1.5h-15
		C40.9,46.9,40.2,47.6,40.2,48.4z"/>
	<path class="st0" d="M56.7,53.9h-23c-0.8,0-1.5,0.7-1.5,1.5c0,0.8,0.7,1.5,1.5,1.5h23c0.8,0,1.5-0.7,1.5-1.5
		C58.2,54.6,57.5,53.9,56.7,53.9z"/>
</g>
</svg>
