<?xml version="1.0" encoding="utf-8"?>
<!-- Generator: Adobe Illustrator 22.1.0, SVG Export Plug-In . SVG Version: 6.00 Build 0)  -->
<svg version="1.1" id="图层_1" xmlns="http://www.w3.org/2000/svg" xmlns:xlink="http://www.w3.org/1999/xlink" x="0px" y="0px"
	 viewBox="0 0 48 48" style="enable-background:new 0 0 48 48;" xml:space="preserve">
<style type="text/css">
	.st0{fill:#191B32;}
</style>
<title>icon_difficulty</title>
<desc>Created with Sketch.</desc>
<g>
	<path class="st0" d="M38,12h-4c-1.1,0-2,0.9-2,2v20c0,1.1,0.9,2,2,2h4c1.1,0,2-0.9,2-2V14C40,12.9,39.1,12,38,12z"/>
	<path class="st0" d="M14,26h-4c-1.1,0-2,0.9-2,2v6c0,1.1,0.9,2,2,2h4c1.1,0,2-0.9,2-2v-6C16,26.9,15.1,26,14,26z"/>
	<path class="st0" d="M26,20h-4c-1.1,0-2,0.9-2,2v12c0,1.1,0.9,2,2,2h4c1.1,0,2-0.9,2-2V22C28,20.9,27.1,20,26,20z"/>
</g>
</svg>
