<?xml version="1.0" encoding="utf-8"?>
<!-- Generator: Adobe Illustrator 22.1.0, SVG Export Plug-In . SVG Version: 6.00 Build 0)  -->
<svg version="1.1" id="图层_1" xmlns="http://www.w3.org/2000/svg" xmlns:xlink="http://www.w3.org/1999/xlink" x="0px" y="0px"
	 viewBox="0 0 48 48" style="enable-background:new 0 0 48 48;" xml:space="preserve">
<style type="text/css">
	.st0{fill:#5067ED;}
</style>
<title>icon_mainpage</title>
<desc>Created with Sketch.</desc>
<g id="页面-1">
	<g id="game-success" transform="translate(-174.000000, -1451.000000)">
		<g id="icon_mainpage" transform="translate(167.000000, 1444.000000)">
			<path class="st0" d="M42,47.9h-8v-9c0-1.7-1.3-3-3-3c-1.7,0-3,1.3-3,3v9h-8c-3.3,0-6-2.7-6-6v-18L27.7,15c2-1.3,4.6-1.3,6.5,0
				L48,23.9v18C48,45.2,45.3,47.9,42,47.9z M37,44.9h5c1.7,0,3-1.3,3-3V25.5l-12.4-8c-1-0.7-2.3-0.7-3.3,0l-12.3,8v16.4
				c0,1.7,1.3,3,3,3h5v-6c0-3.3,2.7-6,6-6s6,2.7,6,6V44.9z"/>
		</g>
	</g>
</g>
</svg>
