<?xml version="1.0" encoding="utf-8"?>
<!-- Generator: Adobe Illustrator 24.0.0, SVG Export Plug-In . SVG Version: 6.00 Build 0)  -->
<svg version="1.1" id="图层_1" xmlns="http://www.w3.org/2000/svg" xmlns:xlink="http://www.w3.org/1999/xlink" x="0px" y="0px"
	 viewBox="0 0 64 64" style="enable-background:new 0 0 64 64;" xml:space="preserve">
<style type="text/css">
	.st0{fill-rule:evenodd;clip-rule:evenodd;fill:#191B32;}
</style>
<g>
	<path class="st0" d="M34.4,18c-0.8-0.1-1.6,0.1-2.2,0.6L23.4,25H19c-2.2,0-4,1.8-4,4v6c0,2.2,1.8,4,4,4h4.5l8.7,6.5
		c0.5,0.4,1.1,0.6,1.8,0.6c1.7,0,3-1.3,3-3V20.9c0-0.6-0.2-1.3-0.6-1.8C35.9,18.5,35.2,18.1,34.4,18z M34,43.1L24.4,36H19
		c-0.6,0-1-0.4-1-1v-6c0-0.6,0.4-1,1-1h5.5l9.5-7.1V43.1z"/>
	<path class="st0" d="M48.5,30h-5c-0.8,0-1.5,0.7-1.5,1.5c0,0.8,0.7,1.5,1.5,1.5h5c0.8,0,1.5-0.7,1.5-1.5C50,30.7,49.3,30,48.5,30z"
		/>
	<path class="st0" d="M42.1,25.8l3.5-3.5c0.6-0.6,0.6-1.5,0-2.1c-0.6-0.6-1.5-0.6-2.1,0l-3.5,3.5c-0.6,0.6-0.6,1.5,0,2.1
		C40.5,26.4,41.5,26.4,42.1,25.8z"/>
	<path class="st0" d="M42.1,37.2c-0.6-0.6-1.5-0.6-2.1,0c-0.6,0.6-0.6,1.5,0,2.1l3.5,3.5c0.6,0.6,1.5,0.6,2.1,0
		c0.6-0.6,0.6-1.5,0-2.1L42.1,37.2z"/>
</g>
</svg>
