<?xml version="1.0" encoding="utf-8"?>
<!-- Generator: Adobe Illustrator 22.1.0, SVG Export Plug-In . SVG Version: 6.00 Build 0)  -->
<svg version="1.1" id="图层_1" xmlns="http://www.w3.org/2000/svg" xmlns:xlink="http://www.w3.org/1999/xlink" x="0px" y="0px"
	 viewBox="0 0 48 48" style="enable-background:new 0 0 48 48;" xml:space="preserve">
<style type="text/css">
	.st0{fill:#191B32;}
</style>
<title>icon_best time</title>
<desc>Created with Sketch.</desc>
<path class="st0" d="M24,14c-8.3,0-15,6.7-15,15c0,8.3,6.7,15,15,15c8.3,0,15-6.7,15-15C39,20.7,32.3,14,24,14z M29,32h-5.5
	c-0.8,0-1.5-0.7-1.5-1.5V22h3v7h4V32z"/>
<path id="形状结合_1_" class="st0" d="M35,4l-2.6,10.2C30,12.8,27.1,12,24,12s-6,0.8-8.4,2.2L13,4l5.5,4L24,4l5.5,4L35,4z"/>
</svg>
