<?xml version="1.0" encoding="utf-8"?>
<!-- Generator: Adobe Illustrator 22.1.0, SVG Export Plug-In . SVG Version: 6.00 Build 0)  -->
<svg version="1.1" id="图层_1" xmlns="http://www.w3.org/2000/svg" xmlns:xlink="http://www.w3.org/1999/xlink" x="0px" y="0px"
	 viewBox="0 0 64 64" style="enable-background:new 0 0 64 64;" xml:space="preserve">
<style type="text/css">
	.st0{fill:#191B32;}
</style>
<title>icon_undo</title>
<desc>Created with Sketch.</desc>
<g id="页面-1">
	<g id="Mainpage-1" transform="translate(-75.000000, -1125.000000)">
		<g id="_x2D_control-icons" transform="translate(0.000000, 1092.000000)">
			<g id="icon_undo" transform="translate(67.000000, 31.000000)">
				<path id="形状结合" class="st0" d="M40,14.2c13.3,0,24,10.7,24,24s-10.7,24-24,24s-24-10.7-24-24c0-6,2.2-11.5,5.9-15.7
					l2.1,2.1c-3.1,3.7-5,8.4-5,13.6c0,11.6,9.4,21,21,21s21-9.4,21-21s-9.4-21-21-21c-0.7,0-1.3,0-2,0.1l0-3
					C38.7,14.3,39.3,14.2,40,14.2z"/>
				<path id="形状结合_1_" class="st0" d="M35,16.8c-0.6-0.6-0.6-1.5,0-2.1l8.5-8.5c0.6-0.6,1.5-0.6,2.1,0
					c0.6,0.6,0.6,1.5,0,2.1l-7.4,7.4l7.4,7.4c0.6,0.6,0.6,1.5,0,2.1c-0.6,0.6-1.5,0.6-2.1,0L35,16.8L35,16.8z"/>
			</g>
		</g>
	</g>
</g>
</svg>
