<?xml version="1.0" encoding="utf-8"?>
<!-- Generator: Adobe Illustrator 22.1.0, SVG Export Plug-In . SVG Version: 6.00 Build 0)  -->
<svg version="1.1" id="图层_1" xmlns="http://www.w3.org/2000/svg" xmlns:xlink="http://www.w3.org/1999/xlink" x="0px" y="0px"
	 viewBox="0 0 48 48" style="enable-background:new 0 0 48 48;" xml:space="preserve">
<style type="text/css">
	.st0{fill:#5067ED;}
</style>
<title>icon_share</title>
<desc>Created with Sketch.</desc>
<g>
	<path class="st0" d="M37,20v12v0.2c-0.1,2.7-2.3,4.8-5,4.8H16h-0.2c-2.7-0.1-4.8-2.3-4.8-5V20H8v12c0,4.4,3.6,8,8,8h16
		c4.4,0,8-3.6,8-8V20H37z"/>
	<path class="st0" d="M19.9,16.2l3.1-3.1v16.4c0,0.8,0.7,1.5,1.5,1.5s1.5-0.7,1.5-1.5V13.1l3.2,3.1c0.6,0.6,1.5,0.6,2.1,0
		c0.6-0.6,0.6-1.5,0-2.1l-5.7-5.7c-0.6-0.5-1.6-0.5-2.1,0l-5.7,5.7c-0.6,0.6-0.6,1.5,0,2.1C18.4,16.8,19.3,16.8,19.9,16.2z"/>
</g>
</svg>
