<?xml version="1.0" encoding="utf-8"?>
<!-- Generator: Adobe Illustrator 22.1.0, SVG Export Plug-In . SVG Version: 6.00 Build 0)  -->
<svg version="1.1" id="图层_1" xmlns="http://www.w3.org/2000/svg" xmlns:xlink="http://www.w3.org/1999/xlink" x="0px" y="0px"
	 viewBox="0 0 64 64" style="enable-background:new 0 0 64 64;" xml:space="preserve">
<style type="text/css">
	.st0{fill:#191B32;}
</style>
<title>icon_hint</title>
<desc>Created with Sketch.</desc>
<g id="页面-1">
	<g id="Mainpage-1" transform="translate(-628.000000, -1124.000000)">
		<g id="_x2D_control-icons" transform="translate(0.000000, 1092.000000)">
			<g id="icon_hint" transform="translate(619.000000, 31.000000)">
				<path class="st0" d="M45,54h-8c-3.3,0-6-2.7-6-6l0-2.3c-7.9-3.8-13-12-13-20.7C18,12.3,28.3,2,41,2c12.7,0,23,10.3,23,23
					c0,8.8-5.1,16.9-13,20.7l0,2.3C51,51.3,48.3,54,45,54z M41,5c-11,0-20,9-20,20c0,7.6,4.4,14.7,11.3,18l1.7,0.8l0,4.2
					c0,1.7,1.3,3,3,3h8c1.7,0,3-1.3,3-3l0-4.2l1.7-0.8C56.6,39.7,61,32.6,61,25C61,14,52,5,41,5z"/>
				<path id="矩形" class="st0" d="M34.5,56h13c0.8,0,1.5,0.7,1.5,1.5l0,0c0,0.8-0.7,1.5-1.5,1.5h-13c-0.8,0-1.5-0.7-1.5-1.5l0,0
					C33,56.7,33.7,56,34.5,56z"/>
				<path id="矩形备份-6" class="st0" d="M37.5,61h7c0.8,0,1.5,0.7,1.5,1.5l0,0c0,0.8-0.7,1.5-1.5,1.5h-7
					c-0.8,0-1.5-0.7-1.5-1.5l0,0C36,61.7,36.7,61,37.5,61z"/>
			</g>
		</g>
	</g>
</g>
</svg>
