<?xml version="1.0" encoding="UTF-8"?>
<svg width="12px" height="22px" viewBox="0 0 12 22" version="1.1" xmlns="http://www.w3.org/2000/svg" xmlns:xlink="http://www.w3.org/1999/xlink">
    <!-- Generator: Sketch 52.1 (67048) - http://www.bohemiancoding.com/sketch -->
    <title>icon_pause</title>
    <desc>Created with Sketch.</desc>
    <g id="页面-1" stroke="none" stroke-width="1" fill="none" fill-rule="evenodd">
        <g id="Mainpage-3" transform="translate(-712.000000, -263.000000)" fill="#9B9B9B">
            <g id="Main-area" transform="translate(0.000000, 237.000000)">
                <g id="编组" transform="translate(24.000000, 20.000000)">
                    <g id="icon_pause" transform="translate(678.000000, 1.000000)">
                        <path d="M12,5 C13.1045695,5 14,5.8954305 14,7 L14,25 C14,26.1045695 13.1045695,27 12,27 C10.8954305,27 10,26.1045695 10,25 L10,7 C10,5.8954305 10.8954305,5 12,5 Z M20,5 C21.1045695,5 22,5.8954305 22,7 L22,25 C22,26.1045695 21.1045695,27 20,27 C18.8954305,27 18,26.1045695 18,25 L18,7 C18,5.8954305 18.8954305,5 20,5 Z" id="形状结合"></path>
                    </g>
                </g>
            </g>
        </g>
    </g>
</svg>