<?xml version="1.0" encoding="utf-8"?>
<!-- Generator: Adobe Illustrator 24.0.0, SVG Export Plug-In . SVG Version: 6.00 Build 0)  -->
<svg version="1.1" id="图层_1" xmlns="http://www.w3.org/2000/svg" xmlns:xlink="http://www.w3.org/1999/xlink" x="0px" y="0px"
	 viewBox="0 0 64 64" style="enable-background:new 0 0 64 64;" xml:space="preserve">
<style type="text/css">
	.st0{fill-rule:evenodd;clip-rule:evenodd;fill:#191B32;}
</style>
<g>
	<path class="st0" d="M32,19.9c-7.2,0-13,5.8-13,13c0,4.9,2.7,9.3,7,11.5v1.5c0,3.3,2.7,6,6,6s6-2.7,6-6v-1.5c4.3-2.2,7-6.7,7-11.5
		C45,25.8,39.2,19.9,32,19.9z M32,48.9c-1.7,0-3-1.3-3-3v-1h6v1C35,47.6,33.7,48.9,32,48.9z M36.6,41.8l-0.2,0.1h-8.7l-0.2-0.1h0
		c-3.3-1.7-5.4-5.1-5.4-8.9c0-5.5,4.5-10,10-10c5.5,0,10,4.5,10,10C42,36.7,39.9,40.1,36.6,41.8z"/>
	<path class="st0" d="M15.5,30.9h-2c-0.8,0-1.5,0.7-1.5,1.5c0,0.8,0.7,1.5,1.5,1.5h2c0.8,0,1.5-0.7,1.5-1.5
		C17,31.6,16.3,30.9,15.5,30.9z"/>
	<path class="st0" d="M50.5,30.9h-2c-0.8,0-1.5,0.7-1.5,1.5c0,0.8,0.7,1.5,1.5,1.5h2c0.8,0,1.5-0.7,1.5-1.5
		C52,31.6,51.3,30.9,50.5,30.9z"/>
	<path class="st0" d="M31.5,17.9c0.8,0,1.5-0.7,1.5-1.5v-2c0-0.8-0.7-1.5-1.5-1.5S30,13.6,30,14.4v2C30,17.3,30.7,17.9,31.5,17.9z"
		/>
	<path class="st0" d="M43.8,18.5l-1.4,1.4c-0.6,0.6-0.6,1.5,0,2.1c0.6,0.6,1.5,0.6,2.1,0l1.4-1.4c0.6-0.6,0.6-1.5,0-2.1
		C45.3,17.9,44.4,17.9,43.8,18.5z"/>
	<path class="st0" d="M20.6,22c0.6-0.6,0.6-1.5,0-2.1l-1.4-1.4c-0.6-0.6-1.5-0.6-2.1,0c-0.6,0.6-0.6,1.5,0,2.1l1.4,1.4
		C19.1,22.6,20,22.6,20.6,22z"/>
</g>
</svg>
