<?xml version="1.0" encoding="utf-8"?>
<!-- Generator: Adobe Illustrator 22.1.0, SVG Export Plug-In . SVG Version: 6.00 Build 0)  -->
<svg version="1.1" id="图层_1" xmlns="http://www.w3.org/2000/svg" xmlns:xlink="http://www.w3.org/1999/xlink" x="0px" y="0px"
	 viewBox="0 0 64 64" style="enable-background:new 0 0 64 64;" xml:space="preserve">
<style type="text/css">
	.st0{fill:#191B32;}
</style>
<title>icon_erase</title>
<desc>Created with Sketch.</desc>
<g id="页面-1">
	<g id="Mainpage-1" transform="translate(-252.000000, -1129.000000)">
		<g id="_x2D_control-icons" transform="translate(0.000000, 1092.000000)">
			<g id="icon_erase" transform="translate(251.000000, 31.000000)">
				<path id="形状结合" class="st0" d="M50,14l11.3,11.3c3.1,3.1,3.1,8.2,0,11.3L36.6,61.3l11.9,0c0.8,0,1.5,0.7,1.5,1.5
					s-0.7,1.5-1.5,1.5H10l0,0l-0.3,0l-5-5c-3.1-3.1-3.1-8.2,0-11.3L38.7,14C41.8,10.9,46.8,10.9,50,14z M30.1,26.8L6.8,50.1
					c-1.9,1.9-2,5-0.2,6.9l0.2,0.2l4.2,4.2h21.4l16.1-16.1L30.1,26.8z M40.9,16l-0.2,0.2l-8.5,8.5L50.6,43l8.5-8.5c2-2,2-5.1,0-7.1
					L47.8,16.2C45.9,14.2,42.9,14.2,40.9,16z"/>
			</g>
		</g>
	</g>
</g>
</svg>
