<?xml version="1.0" encoding="utf-8"?>
<!-- Generator: Adobe Illustrator 22.1.0, SVG Export Plug-In . SVG Version: 6.00 Build 0)  -->
<svg version="1.1" id="图层_1" xmlns="http://www.w3.org/2000/svg" xmlns:xlink="http://www.w3.org/1999/xlink" x="0px" y="0px"
	 viewBox="0 0 48 48" style="enable-background:new 0 0 48 48;" xml:space="preserve">
<style type="text/css">
	.st0{fill:#191B32;}
</style>
<g>
	<path class="st0" d="M24,17c-3.9,0-7,3.1-7,7s3.1,7,7,7s7-3.1,7-7S27.9,17,24,17z M24,28c-2.2,0-4-1.8-4-4s1.8-4,4-4s4,1.8,4,4
		S26.2,28,24,28z"/>
	<path class="st0" d="M42.3,20.9L35.7,9.6c-1.1-1.9-3.1-3.1-5.2-3.1H17.4c-2.1,0-4.1,1.2-5.2,3.1L5.7,20.9c-1.1,1.9-1.1,4.1,0,6
		l6.5,11.3c1,1.9,3,3,5.2,3h13.1c2.1,0,4.1-1.1,5.2-3l6.6-11.3C43.4,25,43.4,22.8,42.3,20.9z M39.7,25.5l-6.6,11.1
		c-0.5,0.9-1.6,1.5-2.6,1.5H17.4c-1.1,0-2.1-0.5-2.6-1.4L8.3,25.4c-0.5-0.9-0.5-2.1,0-3l6.5-11.3c0.5-0.9,1.6-1.5,2.6-1.5h13.1
		c1,0,2.1,0.7,2.6,1.6l6.6,11.3C40.2,23.4,40.2,24.6,39.7,25.5z"/>
</g>
</svg>
